<svg width="83" height="44" viewBox="0 0 83 44" fill="none" xmlns="http://www.w3.org/2000/svg">
<g clip-path="url(#clip0_175_41)">
<path d="M-0.181641 30.7201L-0.153641 10.5601H3.71036V22.8801L8.83436 15.6001H13.5384L8.07836 23.1601L13.9024 30.7201H8.94636L3.71036 23.4401V30.7201H-0.181641Z" fill="#606060"/>
<path d="M14.7356 30.7201V15.6001H18.0956V19.2961L17.7316 18.8201C17.9276 18.2974 18.1889 17.8214 18.5156 17.3921C18.8422 16.9627 19.2436 16.6081 19.7196 16.3281C20.0836 16.1041 20.4802 15.9314 20.9096 15.8101C21.3389 15.6794 21.7822 15.6001 22.2396 15.5721C22.6969 15.5347 23.1542 15.5441 23.6116 15.6001V19.1561C23.1916 19.0254 22.7016 18.9834 22.1416 19.0301C21.5909 19.0674 21.0916 19.1934 20.6436 19.4081C20.1956 19.6134 19.8176 19.8887 19.5096 20.2341C19.2016 20.5701 18.9682 20.9714 18.8096 21.4381C18.6509 21.8954 18.5716 22.4134 18.5716 22.9921V30.7201H14.7356Z" fill="#606060"/>
<path d="M32.4692 31.1401C30.9199 31.1401 29.5525 30.8087 28.3672 30.1461C27.1912 29.4741 26.2672 28.5547 25.5952 27.3881C24.9325 26.2121 24.6012 24.8681 24.6012 23.3561C24.6012 21.7041 24.9279 20.2667 25.5812 19.0441C26.2345 17.8214 27.1352 16.8741 28.2832 16.2021C29.4312 15.5207 30.7519 15.1801 32.2452 15.1801C33.8319 15.1801 35.1805 15.5534 36.2912 16.3001C37.4019 17.0467 38.2232 18.0967 38.7552 19.4501C39.2872 20.8034 39.4739 22.3947 39.3152 24.2241H35.5492V22.8241C35.5492 21.2841 35.3019 20.1781 34.8072 19.5061C34.3219 18.8247 33.5239 18.4841 32.4132 18.4841C31.1159 18.4841 30.1592 18.8807 29.5432 19.6741C28.9365 20.4581 28.6332 21.6201 28.6332 23.1601C28.6332 24.5694 28.9365 25.6614 29.5432 26.4361C30.1592 27.2014 31.0599 27.5841 32.2452 27.5841C32.9919 27.5841 33.6312 27.4207 34.1632 27.0941C34.6952 26.7674 35.1012 26.2961 35.3812 25.6801L39.1892 26.7721C38.6199 28.1534 37.7192 29.2267 36.4872 29.9921C35.2645 30.7574 33.9252 31.1401 32.4692 31.1401ZM27.4572 24.2241V21.3961H37.4812V24.2241H27.4572Z" fill="#606060"/>
<path d="M42.1936 37.4401L45.1056 29.4321L45.1616 31.7841L38.5816 15.6001H42.5296L46.9536 27.0521H46.0576L50.4536 15.6001H54.2617L45.7216 37.4401H42.1936Z" fill="#606060"/>
<path d="M60.4446 31.1401C59.0539 31.1401 57.8359 30.7901 56.7906 30.0901C55.7453 29.3901 54.9286 28.4381 54.3406 27.2341C53.7619 26.0301 53.4726 24.6721 53.4726 23.1601C53.4726 21.6201 53.7666 20.2527 54.3546 19.0581C54.9519 17.8541 55.7873 16.9067 56.8606 16.2161C57.9339 15.5254 59.1939 15.1801 60.6406 15.1801C62.0779 15.1801 63.2866 15.5301 64.2666 16.2301C65.2466 16.9301 65.9886 17.8821 66.4926 19.0861C66.9966 20.2901 67.2486 21.6481 67.2486 23.1601C67.2486 24.6721 66.9919 26.0301 66.4786 27.2341C65.9746 28.4381 65.2186 29.3901 64.2106 30.0901C63.2026 30.7901 61.9473 31.1401 60.4446 31.1401ZM61.0606 27.7521C61.9099 27.7521 62.5866 27.5607 63.0906 27.1781C63.6039 26.7954 63.9726 26.2587 64.1966 25.5681C64.4206 24.8774 64.5326 24.0747 64.5326 23.1601C64.5326 22.2454 64.4206 21.4427 64.1966 20.7521C63.9726 20.0614 63.6133 19.5247 63.1186 19.1421C62.6333 18.7594 61.9939 18.5681 61.2006 18.5681C60.3513 18.5681 59.6513 18.7781 59.1006 19.1981C58.5593 19.6087 58.1579 20.1641 57.8966 20.8641C57.6353 21.5547 57.5046 22.3201 57.5046 23.1601C57.5046 24.0094 57.6306 24.7841 57.8826 25.4841C58.1346 26.1747 58.5219 26.7254 59.0446 27.1361C59.5673 27.5467 60.2393 27.7521 61.0606 27.7521ZM64.5326 30.7201V20.3601H64.0566V10.5601H67.8926V30.7201H64.5326Z" fill="#606060"/>
<path d="M74.4776 31.1401C73.395 31.1401 72.4756 30.9347 71.7196 30.5241C70.973 30.1041 70.4036 29.5487 70.0116 28.8581C69.629 28.1581 69.4376 27.3881 69.4376 26.5481C69.4376 25.8481 69.545 25.2087 69.7596 24.6301C69.9743 24.0514 70.3196 23.5427 70.7956 23.1041C71.281 22.6561 71.9296 22.2827 72.7416 21.9841C73.3016 21.7787 73.969 21.5967 74.7436 21.4381C75.5183 21.2794 76.3956 21.1301 77.3756 20.9901C78.3556 20.8407 79.4336 20.6774 80.6096 20.5001L79.2376 21.2561C79.2376 20.3601 79.023 19.7021 78.5936 19.2821C78.1643 18.8621 77.4456 18.6521 76.4376 18.6521C75.8776 18.6521 75.2943 18.7874 74.6876 19.0581C74.081 19.3287 73.6563 19.8094 73.4136 20.5001L69.9696 19.4081C70.3523 18.1574 71.071 17.1401 72.1256 16.3561C73.1803 15.5721 74.6176 15.1801 76.4376 15.1801C77.7723 15.1801 78.9576 15.3854 79.9936 15.7961C81.0296 16.2067 81.8136 16.9161 82.3456 17.9241C82.6443 18.4841 82.8216 19.0441 82.8776 19.6041C82.9336 20.1641 82.9616 20.7894 82.9616 21.4801V30.7201H79.6296V27.6121L80.1056 28.2561C79.3683 29.2734 78.5703 30.0107 77.7116 30.4681C76.8623 30.9161 75.7843 31.1401 74.4776 31.1401ZM75.2896 28.1441C75.9896 28.1441 76.5776 28.0227 77.0536 27.7801C77.539 27.5281 77.9216 27.2434 78.2016 26.9261C78.491 26.6087 78.687 26.3427 78.7896 26.1281C78.9856 25.7174 79.0976 25.2414 79.1256 24.7001C79.163 24.1494 79.1816 23.6921 79.1816 23.3281L80.3016 23.6081C79.1723 23.7947 78.2576 23.9534 77.5576 24.0841C76.8576 24.2054 76.293 24.3174 75.8636 24.4201C75.4343 24.5227 75.0563 24.6347 74.7296 24.7561C74.3563 24.9054 74.053 25.0687 73.8196 25.2461C73.5956 25.4141 73.4276 25.6007 73.3156 25.8061C73.213 26.0114 73.1616 26.2401 73.1616 26.4921C73.1616 26.8374 73.2456 27.1361 73.4136 27.3881C73.591 27.6307 73.8383 27.8174 74.1556 27.9481C74.473 28.0787 74.851 28.1441 75.2896 28.1441Z" fill="#606060"/>
</g>
<defs>
<clipPath id="clip0_175_41">
<rect width="83" height="44" fill="white"/>
</clipPath>
</defs>
</svg>
