<svg width="141" height="44" viewBox="0 0 141 44" fill="none" xmlns="http://www.w3.org/2000/svg">
<path fill-rule="evenodd" clip-rule="evenodd" d="M12 0C5.37258 0 0 5.37258 0 12V32C0 38.6274 5.37258 44 12 44H32C38.6274 44 44 38.6274 44 32V12C44 5.37258 38.6274 0 32 0H12ZM11.7564 16.1023C10.9777 15.3236 10.5884 14.9343 10.439 14.4866C10.302 14.0758 10.302 13.6316 10.439 13.2207C10.5884 12.7731 10.9777 12.3838 11.7564 11.6051L12.6025 10.759C13.3812 9.98035 13.7705 9.591 14.2181 9.44167C14.629 9.3046 15.0732 9.3046 15.484 9.44167C15.9316 9.591 16.321 9.98034 17.0997 10.759L33.1932 26.8525C33.9719 27.6312 34.3612 28.0206 34.5105 28.4682C34.6476 28.879 34.6476 29.3233 34.5105 29.7341C34.3612 30.1817 33.9719 30.571 33.1932 31.3497L32.3471 32.1958C31.5684 32.9745 31.1791 33.3638 30.7315 33.5132C30.3206 33.6502 29.8764 33.6502 29.4656 33.5132C29.018 33.3638 28.6286 32.9745 27.8499 32.1958L11.7564 16.1023L11.7564 16.1023ZM9.98438 29.4777C9.98438 26.88 12.0903 24.7741 14.688 24.7741C17.2857 24.7741 19.3916 26.88 19.3916 29.4777C19.3916 32.0755 17.2857 34.1813 14.688 34.1813C12.0903 34.1813 9.98438 32.0755 9.98438 29.4777Z" fill="white"/>
<path d="M57.8164 30.7201L57.8444 10.5601H61.7084V22.8801L66.8324 15.6001H71.5364L66.0764 23.1601L71.9004 30.7201H66.9444L61.7084 23.4401V30.7201H57.8164Z" fill="white"/>
<path d="M72.7336 30.7201V15.6001H76.0936V19.2961L75.7296 18.8201C75.9256 18.2974 76.187 17.8214 76.5136 17.3921C76.8403 16.9627 77.2416 16.6081 77.7176 16.3281C78.0816 16.1041 78.4783 15.9314 78.9076 15.8101C79.337 15.6794 79.7803 15.6001 80.2376 15.5721C80.695 15.5347 81.1523 15.5441 81.6096 15.6001V19.1561C81.1896 19.0254 80.6996 18.9834 80.1396 19.0301C79.589 19.0674 79.0896 19.1934 78.6416 19.4081C78.1936 19.6134 77.8156 19.8887 77.5076 20.2341C77.1996 20.5701 76.9663 20.9714 76.8076 21.4381C76.649 21.8954 76.5696 22.4134 76.5696 22.9921V30.7201H72.7336Z" fill="white"/>
<path d="M90.4673 31.1401C88.9179 31.1401 87.5506 30.8087 86.3652 30.1461C85.1892 29.4741 84.2653 28.5547 83.5933 27.3881C82.9306 26.2121 82.5993 24.8681 82.5993 23.3561C82.5993 21.7041 82.9259 20.2667 83.5793 19.0441C84.2326 17.8214 85.1332 16.8741 86.2812 16.2021C87.4293 15.5207 88.7499 15.1801 90.2433 15.1801C91.8299 15.1801 93.1786 15.5534 94.2892 16.3001C95.3999 17.0467 96.2212 18.0967 96.7533 19.4501C97.2852 20.8034 97.4719 22.3947 97.3133 24.2241H93.5472V22.8241C93.5472 21.2841 93.2999 20.1781 92.8053 19.5061C92.3199 18.8247 91.5219 18.4841 90.4113 18.4841C89.1139 18.4841 88.1572 18.8807 87.5412 19.6741C86.9346 20.4581 86.6312 21.6201 86.6312 23.1601C86.6312 24.5694 86.9346 25.6614 87.5412 26.4361C88.1572 27.2014 89.0579 27.5841 90.2433 27.5841C90.9899 27.5841 91.6292 27.4207 92.1613 27.0941C92.6933 26.7674 93.0993 26.2961 93.3792 25.6801L97.1873 26.7721C96.6179 28.1534 95.7173 29.2267 94.4852 29.9921C93.2626 30.7574 91.9233 31.1401 90.4673 31.1401ZM85.4552 24.2241V21.3961H95.4792V24.2241H85.4552Z" fill="white"/>
<path d="M100.192 37.4401L103.104 29.4321L103.16 31.7841L96.5797 15.6001H100.528L104.952 27.0521H104.056L108.452 15.6001H112.26L103.72 37.4401H100.192Z" fill="white"/>
<path d="M118.443 31.1401C117.052 31.1401 115.834 30.7901 114.789 30.0901C113.743 29.3901 112.927 28.4381 112.339 27.2341C111.76 26.0301 111.471 24.6721 111.471 23.1601C111.471 21.6201 111.765 20.2527 112.353 19.0581C112.95 17.8541 113.785 16.9067 114.859 16.2161C115.932 15.5254 117.192 15.1801 118.639 15.1801C120.076 15.1801 121.285 15.5301 122.265 16.2301C123.245 16.9301 123.987 17.8821 124.491 19.0861C124.995 20.2901 125.247 21.6481 125.247 23.1601C125.247 24.6721 124.99 26.0301 124.477 27.2341C123.973 28.4381 123.217 29.3901 122.209 30.0901C121.201 30.7901 119.945 31.1401 118.443 31.1401ZM119.059 27.7521C119.908 27.7521 120.585 27.5607 121.089 27.1781C121.602 26.7954 121.971 26.2587 122.195 25.5681C122.419 24.8774 122.531 24.0747 122.531 23.1601C122.531 22.2454 122.419 21.4427 122.195 20.7521C121.971 20.0614 121.611 19.5247 121.117 19.1421C120.631 18.7594 119.992 18.5681 119.199 18.5681C118.349 18.5681 117.649 18.7781 117.099 19.1981C116.557 19.6087 116.156 20.1641 115.895 20.8641C115.633 21.5547 115.503 22.3201 115.503 23.1601C115.503 24.0094 115.629 24.7841 115.881 25.4841C116.133 26.1747 116.52 26.7254 117.043 27.1361C117.565 27.5467 118.237 27.7521 119.059 27.7521ZM122.531 30.7201V20.3601H122.055V10.5601H125.891V30.7201H122.531Z" fill="white"/>
<path d="M132.476 31.1401C131.393 31.1401 130.474 30.9347 129.718 30.5241C128.971 30.1041 128.402 29.5487 128.01 28.8581C127.627 28.1581 127.436 27.3881 127.436 26.5481C127.436 25.8481 127.543 25.2087 127.758 24.6301C127.972 24.0514 128.318 23.5427 128.794 23.1041C129.279 22.6561 129.928 22.2827 130.74 21.9841C131.3 21.7787 131.967 21.5967 132.742 21.4381C133.516 21.2794 134.394 21.1301 135.374 20.9901C136.354 20.8407 137.432 20.6774 138.608 20.5001L137.236 21.2561C137.236 20.3601 137.021 19.7021 136.592 19.2821C136.162 18.8621 135.444 18.6521 134.436 18.6521C133.876 18.6521 133.292 18.7874 132.686 19.0581C132.079 19.3287 131.654 19.8094 131.412 20.5001L127.968 19.4081C128.35 18.1574 129.069 17.1401 130.124 16.3561C131.178 15.5721 132.616 15.1801 134.436 15.1801C135.77 15.1801 136.956 15.3854 137.992 15.7961C139.028 16.2067 139.812 16.9161 140.344 17.9241C140.642 18.4841 140.82 19.0441 140.876 19.6041C140.932 20.1641 140.96 20.7894 140.96 21.4801V30.7201H137.628V27.6121L138.104 28.2561C137.366 29.2734 136.568 30.0107 135.71 30.4681C134.86 30.9161 133.782 31.1401 132.476 31.1401ZM133.288 28.1441C133.988 28.1441 134.576 28.0227 135.052 27.7801C135.537 27.5281 135.92 27.2434 136.2 26.9261C136.489 26.6087 136.685 26.3427 136.788 26.1281C136.984 25.7174 137.096 25.2414 137.124 24.7001C137.161 24.1494 137.18 23.6921 137.18 23.3281L138.3 23.6081C137.17 23.7947 136.256 23.9534 135.556 24.0841C134.856 24.2054 134.291 24.3174 133.862 24.4201C133.432 24.5227 133.054 24.6347 132.728 24.7561C132.354 24.9054 132.051 25.0687 131.818 25.2461C131.594 25.4141 131.426 25.6007 131.314 25.8061C131.211 26.0114 131.16 26.2401 131.16 26.4921C131.16 26.8374 131.244 27.1361 131.412 27.3881C131.589 27.6307 131.836 27.8174 132.154 27.9481C132.471 28.0787 132.849 28.1441 133.288 28.1441Z" fill="white"/>
</svg>
